<?xml version="1.0" encoding="UTF-8" standalone="no"?>
<!-- Created with Inkscape (http://www.inkscape.org/) -->

<svg
   xmlns:dc="http://purl.org/dc/elements/1.1/"
   xmlns:cc="http://creativecommons.org/ns#"
   xmlns:rdf="http://www.w3.org/1999/02/22-rdf-syntax-ns#"
   xmlns:svg="http://www.w3.org/2000/svg"
   xmlns="http://www.w3.org/2000/svg"
   xmlns:sodipodi="http://sodipodi.sourceforge.net/DTD/sodipodi-0.dtd"
   xmlns:inkscape="http://www.inkscape.org/namespaces/inkscape"
   id="svg5609"
   version="1.1"
   inkscape:version="0.91 r13725"
   xml:space="preserve"
   width="630"
   height="630"
   viewBox="0 0 630 630"
   sodipodi:docname="Noisebridge_Reboot_logo.svg"><metadata
     id="metadata5615"><rdf:RDF><cc:Work
         rdf:about=""><dc:format>image/svg+xml</dc:format><dc:type
           rdf:resource="http://purl.org/dc/dcmitype/StillImage" /><dc:title></dc:title></cc:Work></rdf:RDF></metadata><defs
     id="defs5613"><clipPath
       clipPathUnits="userSpaceOnUse"
       id="clipPath5623"><path
         d="M 0,504 504,504 504,0 0,0 0,504 Z"
         id="path5625"
         inkscape:connector-curvature="0" /></clipPath></defs><sodipodi:namedview
     pagecolor="#ffffff"
     bordercolor="#666666"
     borderopacity="1"
     objecttolerance="10"
     gridtolerance="10"
     guidetolerance="10"
     inkscape:pageopacity="0"
     inkscape:pageshadow="2"
     inkscape:window-width="1407"
     inkscape:window-height="804"
     id="namedview5611"
     showgrid="false"
     inkscape:zoom="0.74920635"
     inkscape:cx="268.2839"
     inkscape:cy="315"
     inkscape:window-x="22"
     inkscape:window-y="42"
     inkscape:window-maximized="0"
     inkscape:current-layer="g5617" /><g
     id="g5617"
     inkscape:groupmode="layer"
     inkscape:label="Noisebridge_Reboot_logo"
     transform="matrix(1.25,0,0,-1.25,0,630)"><g
       id="g5619"><g
         id="g5621"
         clip-path="url(#clipPath5623)"><g
           id="g5627"
           transform="translate(47.3916,251.4629)"><path
             d="m 0,0 410.311,0 c 0,-113.298 -91.869,-205.165 -205.165,-205.165 C 91.849,-205.165 0,-113.298 0,0"
             style="fill:#000000;fill-opacity:1;fill-rule:nonzero;stroke:none"
             id="path5629"
             inkscape:connector-curvature="0" /></g><g
           id="g5631"
           transform="translate(468.3818,251.4629)"><path
             d="M 0,0 C 0,119.2 -96.646,215.843 -215.844,215.843 -335.043,215.843 -431.688,119.2 -431.688,0 c 0,-119.201 96.645,-215.845 215.844,-215.845 C -96.646,-215.845 0,-119.201 0,0"
             style="fill:#000000;fill-opacity:1;fill-rule:nonzero;stroke:none"
             id="path5633"
             inkscape:connector-curvature="0" /></g><g
           id="g5635"
           transform="translate(112.6821,251.4629)"><path
             d="m 0,0 c -0.545,-6.572 3.074,-15.635 7.992,-19.99 l 16.248,-16.231 -25.084,-43.773 52.029,28.21 -27.647,-51.046 51.027,27.684 -27.666,-51.044 51.134,27.68 -4.041,-7.481 24.118,-24.1 c 10.662,-10.679 27.964,-10.679 38.608,0 l 35.868,35.835 -5.338,5.375 c -10.611,10.574 -10.611,27.787 0,38.361 10.573,10.61 27.788,10.61 38.361,0 l 5.375,-5.34 35.834,35.87 c 4.954,4.355 8.573,13.418 8.01,19.99 L 0,0 Z"
             style="fill:#ed1c24;fill-opacity:1;fill-rule:nonzero;stroke:none"
             id="path5637"
             inkscape:connector-curvature="0" /></g><g
           id="g5639"
           transform="translate(47.3916,251.4629)"><path
             d="m 0,0 410.311,0 c 0,113.297 -91.869,205.163 -205.165,205.163 C 91.849,205.163 0,113.297 0,0"
             style="fill:#ed1c24;fill-opacity:1;fill-rule:nonzero;stroke:none"
             id="path5641"
             inkscape:connector-curvature="0" /></g><g
           id="g5643"
           transform="translate(205.0757,354.4658)"><path
             d="M 0,0 25.699,25.715 -0.035,0 c -19.076,13.28 -45.319,8.606 -58.634,-10.468 -10.082,-13.387 -10.082,-34.78 0,-48.167 l -25.732,-25.751 c -4.567,-4.038 -8.203,-12.506 -7.993,-18.617 l 274.828,0 c 0.211,6.111 -3.443,14.579 -8.01,18.617 l -31.231,31.268 5.095,5.128 53.222,8.995 -91.797,91.796 -9.028,-53.223 -5.093,-5.127 -31.267,31.264 c -10.645,10.681 -27.946,10.681 -38.626,0"
             style="fill:#000000;fill-opacity:1;fill-rule:nonzero;stroke:none"
             id="path5645"
             inkscape:connector-curvature="0" /></g></g></g></g></svg>